<svg xmlns="http://www.w3.org/2000/svg" width="338" height="338" viewBox="0 0 338 338" fill="none">
<g clip-path="url(#clip0_9_10893)">
<path d="M275.76 0H61.89C27.7091 0 0 27.7091 0 61.89V275.76C0 309.941 27.7091 337.65 61.89 337.65H275.76C309.941 337.65 337.65 309.941 337.65 275.76V61.89C337.65 27.7091 309.941 0 275.76 0Z" fill="url(#paint0_linear_9_10893)"/>
<path d="M300.68 109.72C300.68 57.04 159.39 53.56 111.84 53.56H111.12C110.81 53.56 110.56 53.81 110.56 54.12C110.56 54.41 110.77 54.65 111.06 54.68C111.64 54.75 112.58 54.85 113.16 54.92C141.09 58.49 214.41 78.55 232.85 127.7C183.16 137.84 100.79 137.9 68.95 137.9C54.13 137.9 42.12 149.92 42.12 164.74C42.12 179.56 54.13 191.58 68.95 191.58C137.13 191.58 194.24 182.58 234.71 168.14C224.17 203.95 177.38 235.94 68.94 235.94C54.12 235.94 42.11 247.96 42.11 262.78C42.11 277.6 54.12 289.62 68.94 289.62C192.9 289.62 265.22 231.97 265.22 162.01C265.15 159.57 264.96 157.17 264.67 154.8C287.86 141.8 300.67 126.26 300.67 109.7L300.68 109.72ZM253.34 122.21C233.43 89.08 190.79 66.2 142.68 57.58C142.43 57.53 142.48 57.16 142.74 57.19C227.86 65.84 272.63 88.02 272.63 105.42C272.63 112.42 265.3 117.9 253.34 122.21Z" fill="#111111"/>
</g>
<defs>
<linearGradient id="paint0_linear_9_10893" x1="316.72" y1="20.93" x2="5.42" y2="332.23" gradientUnits="userSpaceOnUse">
<stop offset="0.33" stop-color="#ECFB3E"/>
<stop offset="1" stop-color="#B49AFF"/>
</linearGradient>
<clipPath id="clip0_9_10893">
<rect width="337.65" height="337.65" fill="white"/>
</clipPath>
</defs>
</svg> 