<?xml version="1.0" encoding="UTF-8"?>
<svg id="Layer_1" data-name="Layer 1" xmlns="http://www.w3.org/2000/svg" xmlns:xlink="http://www.w3.org/1999/xlink" viewBox="0 0 702 211">
  <defs>
    <style>
      .cls-1 {
        fill: url(#linear-gradient);
      }

      .cls-1, .cls-2, .cls-3 {
        stroke-width: 0px;
      }

      .cls-2 {
        fill: url(#linear-gradient-2);
      }

      .cls-3 {
        fill: #fff;
      }
    </style>
    <linearGradient id="linear-gradient" x1="77.07" y1="4.86" x2="77.07" y2="160.69" gradientUnits="userSpaceOnUse">
      <stop offset="0" stop-color="#fff"/>
      <stop offset=".81" stop-color="#b49aff"/>
    </linearGradient>
    <linearGradient id="linear-gradient-2" x1="88.86" y1="-8.63" x2="88.86" y2="99.9" gradientUnits="userSpaceOnUse">
      <stop offset=".16" stop-color="#fff"/>
      <stop offset=".78" stop-color="#ecfb3e"/>
    </linearGradient>
  </defs>
  <g>
    <path class="cls-3" d="m389.87,142.25c6.27,0,11.67-1.53,16.22-4.59,4.55-3.05,8.13-7.05,10.74-11.97,2.61-4.92,3.91-10.29,3.91-16.11v-.67h-26.62c-4.18,0-8.17.53-11.97,1.57-3.8,1.05-6.86,2.8-9.17,5.26-2.31,2.46-3.47,5.86-3.47,10.18,0,5.67,2.02,9.81,6.04,12.42,4.03,2.61,8.8,3.91,14.32,3.91Zm-5.59,19.47c-7.01,0-13.5-1.31-19.46-3.92-5.97-2.61-10.74-6.45-14.32-11.52-3.58-5.07-5.37-11.19-5.37-18.34,0-8.36,2.12-15.13,6.38-20.36,4.25-5.22,9.99-9.02,17.23-11.41,7.23-2.39,15.18-3.58,23.83-3.58h28.19c0-6.41-1.05-11.59-3.13-15.55-2.09-3.95-4.96-6.89-8.61-8.83-3.66-1.93-7.87-2.91-12.64-2.91-6.12,0-11.52,1.45-16.22,4.36-4.7,2.91-7.64,7.57-8.84,13.98h-23.94c.75-8.06,3.47-14.91,8.16-20.58,4.7-5.66,10.66-10.03,17.9-13.09,7.23-3.05,14.95-4.59,23.16-4.59,10.89,0,19.83,1.98,26.85,5.93,7.01,3.95,12.31,9.43,15.89,16.45,3.58,7.01,5.37,15.06,5.37,24.16v33.78c.15,4.32,1.08,7.5,2.8,9.51,1.71,2.01,4.73,3.17,9.06,3.47v20.36c-5.97,0-11.11-.67-15.44-2.02-4.33-1.34-7.95-3.36-10.85-6.04-2.91-2.68-5.18-6.26-6.82-10.74-3.58,6.12-8.8,11.23-15.66,15.32-6.86,4.11-14.7,6.15-23.5,6.15Z"/>
    <polygon class="cls-3" points="467.06 208.25 491.45 154.11 445.13 48.07 471.54 48.07 503.98 129.06 538.21 48.07 563.04 48.07 492.12 208.26 467.06 208.26 467.06 208.25"/>
    <rect class="cls-3" x="571.61" y="2.74" width="23.72" height="156.29"/>
    <path class="cls-3" d="m655.73,161.72c-8.5,0-16.33-1.53-23.49-4.59-7.16-3.05-12.98-7.41-17.45-13.09-4.48-5.66-7.09-12.3-7.83-19.91h23.94c1.04,5.37,3.8,9.77,8.28,13.2,4.47,3.43,9.99,5.14,16.55,5.14,6.12,0,11-1.3,14.66-3.91,3.65-2.61,5.48-6.08,5.48-10.4,0-3.72-1.2-6.64-3.58-8.73-2.39-2.09-5.52-3.69-9.4-4.81-3.88-1.12-8.05-2.19-12.53-3.24-6.86-1.49-13.31-3.43-19.35-5.82-6.04-2.39-10.93-5.7-14.65-9.96-3.73-4.25-5.6-9.8-5.6-16.67s1.87-13.01,5.6-18.01c3.72-5,8.8-8.84,15.22-11.52,6.41-2.68,13.64-4.03,21.7-4.03,12.08,0,22.15,3.06,30.2,9.17,8.06,6.12,12.53,14.92,13.43,26.4h-22.82c-.59-5.21-2.8-9.25-6.6-12.08s-8.77-4.25-14.88-4.25c-5.37,0-9.77,1.08-13.2,3.24-3.43,2.16-5.15,5.48-5.15,9.96,0,2.99,1.19,5.45,3.58,7.38,2.39,1.94,5.48,3.58,9.28,4.92,3.8,1.34,7.8,2.46,11.97,3.35,7.6,1.79,14.39,3.88,20.36,6.26,5.96,2.39,10.74,5.7,14.32,9.96,3.58,4.25,5.36,10.18,5.36,17.78.15,7.01-1.68,13.09-5.48,18.24-3.81,5.14-8.99,9.1-15.55,11.86-6.56,2.76-14.02,4.14-22.37,4.14v.02Z"/>
    <path class="cls-3" d="m256.29,71.28h26.12c7.44,0,13.29-.97,17.53-2.9,4.24-1.93,7.25-4.72,9.04-8.37,1.79-3.65,2.68-7.93,2.68-12.84,0-5.21-.89-9.64-2.68-13.28-1.79-3.65-4.8-6.4-9.04-8.26-4.24-1.86-10.09-2.79-17.53-2.79h-26.12v48.45Zm-23.66,87.75V2.74h50.24c11.02,0,20.43,1.68,28.24,5.02,7.82,3.35,13.88,8.31,18.2,14.85,4.32,6.55,6.48,14.73,6.48,24.56,0,11.61-3.05,20.65-9.15,27.13-6.11,6.48-14.44,10.82-25,13.06l44.21,71.67h-28.58l-39.3-67.43h-21.66v67.43h-23.66Z"/>
  </g>
  <g>
    <path class="cls-1" d="m70.08,4.7c.66,0,.59.53.59.53,0,.29-.25.51-.53.48-.11-.01-.22-.02-.34-.03-.17-.02-.2.23-.04.26.08.01.16.03.25.04,0,0,0,0,0,0,43.48,7.86,80.19,33.25,81.27,69.44,0,46.54-48.11,84.89-130.57,84.89-9.86,0-17.85-8-17.85-17.86s7.99-17.85,17.85-17.86c83.22,0,111.87-28.32,111.87-56.2,0-40.65-51.42-58.47-76.4-63.25-.53-.1-1.05-.2-1.55-.29-.06-.01-.12-.02-.17-.03-.44-.08-.86-.15-1.28-.22-.13-.02-.25-.04-.38-.06-.37-.06-.73-.11-1.09-.17-.1-.01-.2-.03-.29-.04-.44-.06-.87-.12-1.29-.18-.08-.01-.15-.02-.23-.03-.38-.05-.86-.1-1.18-.14-.19-.02-.33-.18-.33-.37,0-.21.17-.38.38-.38h.48c1.46.11,2.49.23,4,.43,2.15.29,4.31.47,6.48.57l10.36.44Z"/>
    <path class="cls-2" d="m174.87,40.62C174.87,5.58,80.88,3.26,49.24,3.26l-.04.8c69.98,3.93,107,20.79,107,33.7,0,21.53-104.27,21.62-135.5,21.62h0c-9.86,0-17.85,8-17.85,17.86s7.99,17.85,17.85,17.86h0s0,0,0,0c0,0,0,0,0,0,92.3,0,154.15-24.77,154.15-54.46Z"/>
  </g>
</svg>